<svg viewBox="0 0 782 128" fill="none" xmlns="http://www.w3.org/2000/svg">
<path d="M328.375 40.6536C306.518 40.6536 289.137 57.5932 289.137 79.6708C289.137 101.749 306.518 118.688 328.375 118.688C342.103 118.688 353.664 112.045 359.725 102.451L353.523 97.5337C347.843 105.843 339.273 110.901 328.636 110.901C311.355 110.901 298.108 97.5537 298.108 79.6909C298.108 61.8281 311.335 48.4811 328.636 48.4811C339.273 48.4811 347.843 53.559 353.523 61.8481L359.725 56.9308C353.443 47.2969 342.103 40.6536 328.375 40.6536Z" fill="#3876DA"/>
<path d="M407.353 42.4189L441.051 116.881H431.899L423.349 97.5931H382.284L373.634 116.881H364.903L398.602 42.4189H407.353ZM419.997 89.9662L402.857 51.4909L385.616 89.9662H419.997Z" fill="#3876DA"/>
<path d="M512.142 42.4189V85.2496C512.142 96.0275 509.292 104.297 503.572 110.037C497.872 115.777 490.164 118.667 480.49 118.667C470.877 118.667 463.21 115.817 457.51 110.097C451.81 104.377 448.939 96.3286 448.939 85.8919V42.4189H457.51V85.3701C457.51 93.4986 459.557 99.7607 463.631 104.176C467.705 108.592 473.406 110.8 480.711 110.8C487.856 110.8 493.456 108.672 497.51 104.437C501.565 100.202 503.572 94.0205 503.572 85.8919V42.4189H512.142Z" fill="#3876DA"/>
<path d="M558.886 50.2866V116.881H550.316V50.2866H524.967V42.4189H584.235V50.2866H558.886Z" fill="#3876DA"/>
<path d="M597.462 42.4189H606.032V116.881H597.462V42.4189Z" fill="#3876DA"/>
<path d="M689.827 52.0726C697.012 59.6794 700.605 68.8516 700.605 79.5493C700.605 90.2469 696.972 99.4593 689.727 107.146C682.461 114.833 673.229 118.687 662.029 118.687C650.83 118.687 641.617 114.874 634.432 107.267C627.247 99.66 623.654 90.4878 623.654 79.7901C623.654 69.0925 627.287 59.8801 634.533 52.193C641.798 44.506 651.031 40.6524 662.23 40.6524C673.449 40.6324 682.642 44.4458 689.827 52.0726ZM683.425 101.808C688.984 95.8065 691.774 88.4606 691.774 79.77C691.774 71.0795 688.944 63.6935 683.304 57.6322C677.664 51.5708 670.559 48.5201 662.009 48.5201C653.459 48.5201 646.394 51.5307 640.835 57.5117C635.275 63.5128 632.485 70.8587 632.485 79.5493C632.485 88.2398 635.295 95.6258 640.955 101.687C646.595 107.769 653.68 110.799 662.25 110.799C670.8 110.799 677.845 107.809 683.425 101.808Z" fill="#3876DA"/>
<path d="M725.653 42.4189L772.679 102.47V42.4189H781.249V116.881H773.662L725.432 55.4046V116.881H716.862V42.4189H725.653Z" fill="#3876DA"/>
<path d="M166.085 89.2634C172.187 95.2043 179.312 98.4758 186.597 98.4758C190.17 98.4758 193.14 97.7332 193.14 95.2043C193.14 93.418 191.655 92.6754 188.825 91.4912L180.496 88.0792C166.988 82.5598 158.96 76.4784 158.96 64.135C158.96 49.2626 170.701 40.6523 187.802 40.6523C198.66 40.6523 208.474 44.0643 215.76 51.651L203.718 67.266C198.82 63.1114 193.461 60.8835 187.962 60.8835C184.691 60.8835 182.764 61.6261 182.764 63.7135C182.764 65.6403 184.41 66.3829 187.822 67.7276L195.248 70.6981C208.474 76.0569 216.944 81.5563 216.944 94.0402C216.944 109.655 203.858 118.727 186.176 118.727C173.01 118.727 161.308 113.729 154.304 104.577L166.085 89.2634Z" fill="#3876DA"/>
<path d="M61.9781 3.00029C58.2248 1.3545 53.3477 0.00976562 47.0054 0.00976562C23.884 0.00976562 11.099 13.5976 11.099 35.615L11.079 42.439H0V63.8544H11.0589V128L36.6489 116.921V63.8343H61.958V116.901H87.5279V42.439H36.6489V37.5619C36.6489 27.0449 43.7539 23.1512 50.0762 23.1512C51.0195 23.1512 51.8625 23.1913 52.6051 23.2917L61.9781 3.00029Z" fill="#3876DA"/>
<path d="M288.997 111.401C285.505 113.81 277.778 118.687 263.427 118.687C243.858 118.687 232.538 107.849 232.538 88.2801L232.559 63.8341H221.439V42.4187H232.518L232.498 32.1024L258.088 21.0234V42.4187H280.226V63.8341H258.068L258.088 85.5705C258.088 92.9766 263.427 95.5657 269.569 95.5657C274.647 95.5657 278.199 93.6389 280.246 92.4548C280.246 92.4347 288.897 111.401 288.997 111.401Z" fill="#3876DA"/>
<path d="M152.234 41.8363V63.8337H146.133C134.833 63.8337 128.451 68.7309 128.451 81.6765V116.92H102.881V42.4184H126.223V49.704C130.839 43.9036 137.362 40.6321 144.949 40.6321C147.779 40.6321 150.167 41.0937 152.234 41.8363Z" fill="#3876DA"/>
<path d="M62.0375 30.6372C63.0008 33.9689 71.9523 31.3998 82.9109 25.8603C98.1043 18.1733 97.2614 7.63623 92.9863 3.0802C88.7113 -1.47583 81.6866 -0.693071 77.1105 3.5619C73.558 6.87355 72.2935 12.2324 68.1791 20.3409C64.2854 28.0079 61.4755 28.6301 62.0375 30.6372Z" fill="#F8A81A"/>
</svg>
