<?xml version="1.0" encoding="utf-8"?>
<svg xmlns="http://www.w3.org/2000/svg" width="166" height="50" viewBox="0 0 166 50" fill="none">
<path d="M74.4136 13.5133H61.4671V20.8512H73.646V24.35H61.4671V36.1037H57.3184V9.97949H74.4136V13.5133Z" fill="black"/>
<path d="M77.1799 36.1037V9.97949H81.1749V36.1037H77.1799Z" fill="black"/>
<path d="M100.768 32.3769C100.761 33.6316 100.903 34.8826 101.192 36.1037H97.3127C97.1971 35.4887 97.159 34.6055 97.159 33.5676C95.9672 35.335 93.6602 36.4875 90.9354 36.4875C87.0549 36.4875 84.5188 34.2207 84.5188 30.8788C84.5188 26.5753 88.3993 24.7294 96.966 24.1993V23.5844C96.966 21.395 95.6598 20.0114 93.0092 20.0114C90.5887 20.0114 89.0524 21.0875 88.5148 23.2006L85.0161 22.3937C85.7847 18.8949 88.8583 16.8232 93.1226 16.8232C97.8481 16.8232 100.768 19.3201 100.768 23.3151V32.3769ZM96.9639 28.6884V26.922C90.8145 27.3461 88.4745 28.3427 88.4745 30.5713C88.4745 32.2614 89.7415 33.4138 91.932 33.4138C94.89 33.4138 96.9639 31.5658 96.9639 28.6884V28.6884Z" fill="black"/>
<path d="M109.95 30.6479C109.95 32.4927 110.798 33.0684 112.176 33.0684C112.715 33.0684 113.368 32.9528 114.059 32.8383V35.9501C113.082 36.2125 112.075 36.3416 111.063 36.3339C107.259 36.3339 105.953 34.5315 105.953 31.2628V20.4335H102.533V17.2019H105.953V11.4014H109.949V17.2019H113.906V20.4335H109.949L109.95 30.6479Z" fill="black"/>
<path d="M123.356 15.8194V17.1978H127.467V20.4336H123.356V36.1039H119.361V20.4336H115.98V17.202H119.361V16.0113C119.361 11.8616 121.282 9.59479 125.316 9.59479C126.041 9.59202 126.764 9.68253 127.467 9.86409V12.9759C126.894 12.8918 126.317 12.8404 125.739 12.8221C123.971 12.8221 123.356 13.8601 123.356 15.8194Z" fill="black"/>
<path d="M128.12 26.8069C128.12 21.0052 131.619 16.8184 137.494 16.8184C143.257 16.8184 146.637 20.8133 146.637 26.5725C146.637 32.143 143.449 36.4847 137.34 36.4847C131.578 36.4879 128.12 32.5692 128.12 26.8069ZM142.681 26.5757C142.681 22.427 140.492 20.0839 137.495 20.0839C134.46 20.0839 132.117 22.4652 132.117 26.6913C132.117 30.9174 134.46 33.2224 137.38 33.2224C140.3 33.2224 142.681 30.8411 142.681 26.5757Z" fill="black"/>
<path d="M165.807 36.1041H160.93L156.053 28.9199L151.176 36.1041H146.259L153.596 26.1919L147.023 17.2021H151.672L156.05 23.6145L160.387 17.2021H165.075L158.501 26.1537L165.807 36.1041Z" fill="black"/>
<path d="M1.58399 0.159679L13.8626 8.04042C14.006 8.13228 14.123 8.2598 14.2022 8.41049C14.2815 8.56118 14.3202 8.72987 14.3147 8.90004C14.3091 9.07021 14.2594 9.23601 14.1705 9.38121C14.0816 9.52641 13.9565 9.64602 13.8075 9.72832L1.49387 16.5393C1.34409 16.6221 1.1753 16.6644 1.00417 16.662C0.833035 16.6596 0.665482 16.6127 0.518056 16.5257C0.370631 16.4388 0.248433 16.3149 0.16353 16.1663C0.0786266 16.0177 0.0339555 15.8495 0.0339284 15.6784V1.00681C0.0338128 0.826081 0.0823772 0.648657 0.17452 0.493182C0.266662 0.337707 0.39898 0.20992 0.557569 0.123249C0.716159 0.0365779 0.895165 -0.00577697 1.07578 0.00063324C1.25639 0.00704345 1.43195 0.0619825 1.58399 0.159679V0.159679ZM40.2222 1.00787V15.6784C40.2222 15.8495 40.1775 16.0177 40.0926 16.1663C40.0077 16.3149 39.8855 16.4388 39.7381 16.5257C39.5907 16.6127 39.4231 16.6596 39.252 16.662C39.0809 16.6644 38.9121 16.6221 38.7623 16.5393L26.4508 9.72514C26.3018 9.64284 26.1767 9.52322 26.0877 9.37803C25.9988 9.23283 25.9492 9.06702 25.9436 8.89686C25.9381 8.72669 25.9768 8.558 26.056 8.40731C26.1353 8.25662 26.2523 8.1291 26.3957 8.03724L38.6722 0.159679C38.8242 0.0619825 38.9998 0.00704345 39.1804 0.00063324C39.361 -0.00577697 39.54 0.0365779 39.6986 0.123249C39.8572 0.20992 39.9895 0.337707 40.0816 0.493182C40.1738 0.648657 40.2223 0.826081 40.2222 1.00681V1.00787ZM39.2383 31.9901H0.98284C0.722175 31.9901 0.472185 31.8866 0.287867 31.7023C0.103549 31.5179 0 31.268 0 31.0073V23.9684C0.000331696 23.4551 0.138191 22.9513 0.399236 22.5094C0.660281 22.0675 1.03497 21.7036 1.48433 21.4556L18.939 11.8C19.3374 11.5798 19.7849 11.4633 20.2402 11.4615C20.6954 11.4596 21.1438 11.5724 21.544 11.7894L38.7199 21.1195C39.1742 21.3662 39.5535 21.7309 39.8177 22.1752C40.082 22.6195 40.2214 23.127 40.2212 23.6439V31.0115C40.22 31.2715 40.116 31.5204 39.9318 31.7038C39.7476 31.8872 39.4983 31.9901 39.2383 31.9901V31.9901Z" fill="#FE5000"/>
<path d="M4.28642 37.4781L14.6481 47.404C16.1179 48.8108 18.0739 49.596 20.1083 49.596C22.1428 49.596 24.0988 48.8108 25.5686 47.404L35.9292 37.4791C36.0438 37.3699 36.1231 37.2289 36.1569 37.0742C36.1907 36.9196 36.1776 36.7583 36.1191 36.6112C36.0607 36.4641 35.9596 36.3378 35.8288 36.2486C35.6981 36.1593 35.5436 36.1112 35.3853 36.1104H4.83563C4.6771 36.1104 4.52219 36.1578 4.39086 36.2466C4.25952 36.3354 4.15777 36.4614 4.0987 36.6086C4.03962 36.7557 4.02593 36.9171 4.05939 37.0721C4.09285 37.227 4.17192 37.3684 4.28642 37.4781V37.4781Z" fill="#FE5000"/>
</svg>