<svg version="1.1" id="Calque_1" xmlns="http://www.w3.org/2000/svg" x="0" y="0" viewBox="0 0 433.15 61.2" xml:space="preserve"><style>.st0{fill:#575756}.st1{fill:#dc1622}</style><path class="st0" d="M10.76 10c0 1.36-.51 2.53-1.53 3.5S7 14.97 5.59 14.97s-2.63-.49-3.65-1.47S.41 11.35.41 10c0-1.36.51-2.53 1.53-3.5 1.02-.98 2.23-1.47 3.65-1.47 1.41 0 2.63.49 3.65 1.47s1.52 2.15 1.52 3.5zM235.61 10c0 1.36-.51 2.53-1.53 3.5s-2.23 1.47-3.65 1.47c-1.41 0-2.63-.49-3.64-1.47-1.02-.98-1.53-2.15-1.53-3.5 0-1.36.51-2.53 1.53-3.5 1.02-.98 2.23-1.47 3.64-1.47s2.63.49 3.65 1.47 1.53 2.15 1.53 3.5z"/><path class="st1" d="M262.24 18.41h8.8v42.23h-8.8zM267.27 2.92h15.42V18.4h-15.42z"/><path fill="#fff" d="M280.07 12.35h-3.25v3.01h-3.53v-3.01h-3.24V9.08h3.24v-3h3.53v3h3.25z"/><g><path class="st0" d="M350.44 51.48c-1.07-1.06-2.37-1.6-3.91-1.6-1.49 0-2.77.53-3.83 1.6-1.07 1.07-1.6 2.34-1.6 3.83s.53 2.77 1.6 3.83c1.06 1.06 2.34 1.6 3.83 1.6 1.54 0 2.85-.53 3.91-1.6 1.06-1.06 1.6-2.34 1.6-3.83-.01-1.49-.54-2.77-1.6-3.83M432.71 37.8c0-5.21-.94-9.25-2.82-12.13-2.99-4.49-7.73-6.73-14.21-6.73-2.88 0-5.54.61-7.98 1.83V2.66h-8.47v58h8.47V33.49c.28-1 .64-1.88 1.08-2.66 1.33-2.27 3.63-3.41 6.9-3.41 3.43 0 5.79.97 7.06 2.91 1 1.5 1.5 3.99 1.5 7.48v22.85h8.47V37.8zm-46.36 10.13c-1.83 1.88-3.21 3.16-4.16 3.82-1.55 1.05-3.3 1.58-5.23 1.58-3.49 0-6.12-1.25-7.89-3.74-1.44-1.94-2.16-5.07-2.16-9.39s.72-7.48 2.16-9.47c1.77-2.49 4.4-3.74 7.89-3.74 1.94 0 3.68.53 5.23 1.58.94.67 2.33 1.97 4.16 3.9l6.23-5.48c-2.94-3.1-5.53-5.21-7.77-6.32-2.24-1.11-4.86-1.66-7.85-1.66-5.82 0-10.4 1.97-13.75 5.9s-5.03 9.03-5.03 15.29 1.66 11.3 4.99 15.12c3.38 3.99 7.98 5.98 13.79 5.98 2.99 0 5.61-.54 7.85-1.62 2.24-1.08 4.83-3.17 7.77-6.27l-6.23-5.48zM336.21 19.6c-2.77 0-5.35.55-7.73 1.66v-1.25h-8.31v40.63h8.31v-27c0-1.83.86-3.29 2.58-4.4 1.49-1 3.21-1.5 5.15-1.5 1.66 0 3.49.55 5.48 1.66l3.74-7.64c-3.27-1.44-6.34-2.16-9.22-2.16m-48.2 15.79c.94-4.99 3.96-7.48 9.06-7.48 2.93 0 5.21 1.16 6.81 3.49.44.66.78 1.99 1 3.99h-16.87zm25.43-.33c-.28-3.43-1.08-6.12-2.41-8.06-3.21-4.87-7.84-7.31-13.88-7.31-6.65 0-11.61 2.41-14.87 7.23-2.11 3.16-3.16 7.67-3.16 13.54s1.05 10.39 3.16 13.54c3.32 4.93 8.53 7.4 15.62 7.4 6.04 0 11.16-2.33 15.37-6.98l-6.81-5.07c-2.38 2.6-5.26 3.9-8.64 3.9-3.93 0-6.73-1.25-8.39-3.74-.89-1.27-1.44-3.24-1.66-5.9h25.76c.05-4.54.02-7.39-.09-8.55m-58.41 17.2c-1.44 0-2.31-.12-2.62-.37-.3-.25-.46-.96-.46-2.12V.11h-7.81v49.66c0 2.77.44 4.99 1.33 6.65 1.5 2.83 4.68 4.24 9.56 4.24v-8.4zM234.75 19.6h-8.56v41.05h8.56V19.6zm-26.5 29.91c-1.27 2.33-3.57 3.49-6.9 3.49-3.27 0-5.57-1.16-6.9-3.49-.55-.88-.91-2.1-1.08-3.66V34.63c.17-1.61.53-2.85 1.08-3.74 1.33-2.33 3.63-3.49 6.9-3.49 3.32 0 5.62 1.16 6.9 3.49 1.11 1.88 1.66 4.99 1.66 9.31 0 4.33-.55 7.43-1.66 9.31m7.4-22.76c-2.94-5.15-7.7-7.73-14.29-7.73-2.71 0-5.37.75-7.98 2.24V.1h-8.48v60.54h8.48v-1.49c1.83 1.49 4.49 2.24 7.98 2.24 6.59 0 11.36-2.58 14.29-7.73 1.83-3.16 2.74-7.64 2.74-13.46 0-5.81-.92-10.3-2.74-13.45m-47.62 23.01c-1.44 2.33-3.99 3.49-7.64 3.49-3.6 0-6.12-1.16-7.56-3.49-1.11-1.77-1.66-4.85-1.66-9.22 0-4.43.55-7.53 1.66-9.31 1.44-2.27 3.96-3.41 7.56-3.41 3.66 0 6.2 1.14 7.64 3.41 1.11 1.77 1.66 4.88 1.66 9.31.01 4.38-.55 7.45-1.66 9.22M175.35 27c-3.1-4.93-8.06-7.39-14.87-7.39-6.87 0-11.85 2.46-14.96 7.39-1.94 3.1-2.91 7.62-2.91 13.54 0 5.87.97 10.39 2.91 13.54 3.1 4.88 8.09 7.31 14.96 7.31 6.81 0 11.77-2.44 14.87-7.31 1.94-3.1 2.91-7.64 2.91-13.63 0-5.92-.97-10.41-2.91-13.45m-38.31 10.38c0-4.99-.89-8.86-2.66-11.63-2.66-4.04-7.23-6.07-13.71-6.07-4.99 0-8.84 1.36-11.55 4.07-2.6-2.71-6.7-4.07-12.3-4.07-2.88 0-5.21.69-6.98 2.08v-1.5h-8.72v40.38h8.72V32.97c0-1.27.33-2.33 1-3.16 1.38-1.66 3.38-2.49 5.98-2.49 3.16 0 5.32.91 6.48 2.74.94 1.44 1.41 3.88 1.41 7.31v23.26h8.73V37.37c0-.89-.03-1.74-.08-2.58.22-1.77.64-3.18 1.25-4.24 1.16-2.16 3.18-3.24 6.07-3.24 2.99 0 5.07.91 6.23 2.74.94 1.44 1.41 3.88 1.41 7.31v23.26h8.72V37.38zm-61.9 0c0-4.99-.89-8.86-2.66-11.63-2.66-4.04-7.23-6.07-13.71-6.07-4.99 0-8.84 1.36-11.55 4.07-2.6-2.71-6.7-4.07-12.3-4.07-2.88 0-5.21.69-6.98 2.08v-1.5h-8.72v40.38h8.72V32.97c0-1.27.33-2.33 1-3.16 1.38-1.66 3.38-2.49 5.98-2.49 3.16 0 5.32.91 6.48 2.74.94 1.44 1.41 3.88 1.41 7.31v23.26h8.73V37.37c0-.89-.03-1.74-.08-2.58.22-1.77.64-3.18 1.25-4.24 1.16-2.16 3.19-3.24 6.07-3.24 2.99 0 5.07.91 6.23 2.74.94 1.44 1.41 3.88 1.41 7.31v23.26h8.73l-.01-23.24zM9.83 19.6H1.27v41.05h8.56V19.6z"/></g></svg>