<?xml version="1.0" encoding="utf-8"?>
<!-- Generator: Adobe Illustrator 26.0.1, SVG Export Plug-In . SVG Version: 6.00 Build 0)  -->
<svg version="1.1" xmlns="http://www.w3.org/2000/svg" xmlns:xlink="http://www.w3.org/1999/xlink" x="0px" y="0px"
	 viewBox="0 0 1077.22 344.91" style="enable-background:new 0 0 1077.22 344.91;" xml:space="preserve">
<style type="text/css">
	.st0{fill:#3BA88F;}
	.st1{fill:#002C5E;}
</style>
<g id="Calque_2">
</g>
<g id="Calque_1">
	<polygon class="st0" points="221.44,296.81 203.86,271.6 256.27,271.6 273.84,296.81 	"/>
	<g>
		<path class="st1" d="M391.94,243.98v-35.24c15.83,5.87,29.62,8.94,42.65,8.94c14.81,0,22.22-3.83,22.22-10.98
			c0-5.36-5.36-8.94-18.9-13.02l-6.13-1.79c-27.84-8.17-41.11-21.7-41.11-43.66c0-26.81,24.77-41.63,58.73-41.63
			c13.79,0,23.75,1.53,37.28,5.11v34.98c-12.51-4.09-25.02-6.38-36.01-6.38c-12.26,0-20.69,2.55-20.69,8.43
			c0,5.62,4.09,8.68,18.64,13.02l6.13,1.79c32.69,9.45,43.92,20.43,43.92,42.39c0,25.54-21.96,45.45-59.75,45.45
			C421.05,251.39,402.67,247.56,391.94,243.98z"/>
		<path class="st1" d="M584.34,106.22c38.05,0,72.78,22.47,72.78,72.27s-34.73,72.52-72.78,72.52c-38.05,0-72.78-22.73-72.78-72.52
			S546.29,106.22,584.34,106.22z M584.34,218.32c17.11,0,29.87-10.98,29.87-39.84c0-29.11-13.28-39.58-29.87-39.58
			c-16.6,0-29.88,10.47-29.88,39.58C554.46,207.34,567.23,218.32,584.34,218.32z"/>
		<path class="st1" d="M720.56,247.69h-42.14V48.1h42.14V247.69z"/>
		<path class="st1" d="M808.85,207.08l27.84-96.78h43.41l-49.03,137.38h-46.73L734.28,110.3h45.45L808.85,207.08z"/>
		<path class="st1" d="M143.01,98.06c18.88,0,33.1,2.2,33.1,19.52c0,17.59-14.22,17.95-33.1,17.95h-33.98l78.34,112.4h52.36
			l-55.73-80c25.1-7.28,37.92-22.67,37.92-50.34c0-45.26-33.91-56.99-80.2-56.99H56.77l26.12,37.47H143.01z"/>
		<path class="st1" d="M321.48,216.59c-13.58,0-29.89-3.09-37.61-16.38c0,0,0,0-0.01,0c-0.52-0.86-0.97-1.77-1.37-2.68
			c-0.14-0.31-0.27-0.63-0.4-0.95c-0.01-0.03-0.03-0.06-0.04-0.09c-0.83-2.04-1.49-4.26-1.94-6.71h0.06
			c-0.47-2.52-0.58-4.3-0.58-4.3h95.67c1.24-46.5-21.7-79.2-65.8-79.2c-40.09,0-70.98,28.09-70.98,72
			c0,45.45,33.19,72.77,75.32,72.77c23.23,0,39.82-3.83,50.29-8.17l-20.07-28.79C336.29,215.74,328.4,216.59,321.48,216.59z
			 M307.95,137.95c13.23,0,24.26,7.22,25.84,22.45h-53.43C283.48,142.86,296.49,137.95,307.95,137.95z"/>
		<path class="st1" d="M966.6,216.59c-13.58,0-29.89-3.09-37.61-16.38c0,0,0,0-0.01,0c-0.52-0.86-0.97-1.77-1.37-2.68
			c-0.14-0.31-0.27-0.63-0.4-0.95c-0.01-0.03-0.03-0.06-0.04-0.09c-0.83-2.04-1.49-4.26-1.94-6.71h0.06
			c-0.47-2.52-0.58-4.3-0.58-4.3h95.67c1.24-46.5-21.7-79.2-65.8-79.2c-40.09,0-70.98,28.09-70.98,72
			c0,45.45,33.19,72.77,75.32,72.77c23.23,0,39.82-3.83,50.29-8.17l-20.07-28.79C981.42,215.74,973.52,216.59,966.6,216.59z
			 M953.07,137.95c13.23,0,24.26,7.22,25.84,22.45h-53.43C928.6,142.86,941.61,137.95,953.07,137.95z"/>
	</g>
</g>
</svg>
